<svg xmlns="http://www.w3.org/2000/svg" width="48" height="48" fill="none" viewBox="0 0 48 48">
  <circle cx="24" cy="24" r="24" fill="#EF1D27"/>
  <path fill="#fff" d="M25.89 36.125c-1.163 0-2.142-.398-2.939-1.195-.797-.796-1.195-1.754-1.195-2.874 0-1.636.662-3.116 1.986-4.44 1.324-1.324 2.976-2.147 4.957-2.47-.065-.775-.258-1.362-.581-1.76-.323-.398-.764-.598-1.324-.598-.646 0-1.346.27-2.1.808-.753.538-1.646 1.42-2.68 2.648-1.679 2.002-2.911 3.304-3.697 3.907-.786.603-1.63.904-2.535.904-1.098 0-2.023-.409-2.777-1.227-.753-.818-1.13-1.808-1.13-2.97 0-1.163.253-2.353.759-3.569.506-1.216 1.361-2.675 2.567-4.376.41-.56.71-1.033.904-1.42.194-.388.29-.7.29-.937 0-.15-.026-.264-.08-.339-.054-.075-.134-.113-.242-.113-.215 0-.485.135-.807.404-.323.269-.7.683-1.13 1.243l-2.261-2.293c.689-.84 1.389-1.48 2.099-1.921.71-.441 1.41-.662 2.099-.662.99 0 1.83.344 2.519 1.033.689.69 1.033 1.55 1.033 2.584 0 .624-.162 1.313-.484 2.066-.323.754-.861 1.658-1.615 2.713-.818 1.162-1.426 2.185-1.824 3.067-.399.883-.598 1.658-.598 2.325 0 .366.06.652.178.856.118.205.285.307.5.307a.93.93 0 0 0 .565-.178c.162-.118.458-.403.888-.855.28-.302.614-.673 1.002-1.114.387-.442.86-.985 1.42-1.631 1.357-1.615 2.584-2.766 3.681-3.455 1.098-.69 2.25-1.034 3.456-1.034 1.442 0 2.626.485 3.552 1.453.925.97 1.453 2.293 1.582 3.972h3.197v3.23h-3.197c-.172 2.41-.802 4.332-1.889 5.764-1.087 1.431-2.47 2.147-4.15 2.147Zm.064-3.23c.69 0 1.27-.392 1.744-1.178.474-.786.796-1.878.969-3.277a5.537 5.537 0 0 0-2.584 1.404c-.732.7-1.098 1.394-1.098 2.083 0 .301.087.538.259.71.172.173.409.259.71.259Z"/>
</svg>
