<svg width="100" height="100" viewBox="0 0 100 100" fill="none" xmlns="http://www.w3.org/2000/svg">
<rect width="100" height="100" fill="#1E1E1E"/>
<rect width="100" height="100" fill="white"/>
<path fill-rule="evenodd" clip-rule="evenodd" d="M51.0257 3.61803L52.1839 7.18237H55.9316H57.6329L56.2565 8.18237L53.2245 10.3853L54.3827 13.9496L54.9084 15.5676L53.532 14.5676L50.5 12.3647L47.468 14.5676L46.0916 15.5676L46.6173 13.9496L47.7755 10.3853L44.7435 8.18237L43.3671 7.18237H45.0684H48.8161L49.9743 3.61803L50.5 2L51.0257 3.61803ZM52.1839 8.18237H54.5552L52.6367 9.57624L52.049 10.0033L52.2735 10.6943L53.0063 12.9496L51.0878 11.5557L50.5 11.1287L49.9122 11.5557L47.9937 12.9496L48.7265 10.6943L48.951 10.0033L48.3633 9.57624L46.4448 8.18237H48.8161H49.5427L49.7672 7.49139L50.5 5.23607L51.2328 7.49139L51.4573 8.18237H52.1839ZM25.5 44C25.5 31.2355 34.3151 19.5 50 19.5C65.6849 19.5 74.5 31.2355 74.5 44C74.5 50.315 71.2283 55.0706 67.6684 59.6298C67.3077 60.0918 66.9435 60.5524 66.5796 61.0127L66.5791 61.0133L66.5786 61.0138L66.5782 61.0144L66.5777 61.015L66.5772 61.0156L66.5767 61.0162L66.5763 61.0168L66.5762 61.0169L66.5762 61.0169C65.1576 62.8111 63.7436 64.5995 62.5564 66.4399C61.0586 68.7618 59.894 71.2062 59.505 73.9293C59.2223 75.9082 59.224 78.4449 59.2932 80.4669C59.3279 81.482 59.3801 82.3753 59.4235 83.015C59.4452 83.335 59.4648 83.5917 59.4789 83.7688L59.4823 83.8106L56.7929 86.5H53.5454L55.4981 64.0433L55.5454 63.5H55H45H44.4546L44.5019 64.0433L46.4546 86.5H43.2071L40.5375 83.8304L40.5417 83.8058C40.5723 83.6233 40.6146 83.3594 40.6615 83.0316C40.7552 82.3764 40.8677 81.4634 40.9427 80.4318C41.0914 78.3875 41.0993 75.8059 40.4765 73.8484C39.0067 69.2291 36.1457 65.4824 33.3509 61.8224L33.3509 61.8223L33.3507 61.8221C32.7561 61.0433 32.1644 60.2685 31.5898 59.49C28.2941 55.0251 25.5 50.3841 25.5 44ZM43.5 87.5V88.5H56.5V87.5H53H47H43.5ZM43.5 89.5V90.5H56.5V89.5H43.5ZM43.5 91.5V93H47H47.5H52.5H53H56.5V91.5H43.5ZM47.5 95.5V94H52.5V95.5H52.4945H52.4816H52.4687H52.4558H52.443H52.4302H52.4174H52.4046H52.3919H52.3792H52.3664H52.3537H52.3411H52.3284H52.3158H52.3032H52.2906H52.278H52.2654H52.2529H52.2403H52.2278H52.2153H52.2029H52.1904H52.178H52.1656H52.1532H52.1408H52.1284H52.1161H52.1037H52.0914H52.0791H52.0668H52.0546H52.0423H52.0301H52.0179H52.0057H51.9935H51.9813H51.9692H51.9571H51.945H51.9328H51.9208H51.9087H51.8966H51.8846H51.8726H51.8606H51.8486H51.8366H51.8247H51.8127H51.8008H51.7889H51.777H51.7651H51.7532H51.7414H51.7295H51.7177H51.7059H51.6941H51.6823H51.6705H51.6588H51.647H51.6353H51.6236H51.6119H51.6002H51.5885H51.5769H51.5652H51.5536H51.542H51.5304H51.5188H51.5072H51.4956H51.4841H51.4725H51.461H51.4495H51.4379H51.4264H51.415H51.4035H51.392H51.3806H51.3691H51.3577H51.3463H51.3349H51.3235H51.3121H51.3008H51.2894H51.278H51.2667H51.2554H51.2441H51.2328H51.2215H51.2102H51.1989H51.1876H51.1764H51.1651H51.1539H51.1427H51.1315H51.1202H51.1091H51.0979H51.0867H51.0755H51.0644H51.0532H51.0421H51.0309H51.0198H51.0087H50.9976H50.9865H50.9754H50.9643H50.9532H50.9422H50.9311H50.9201H50.909H50.898H50.887H50.8759H50.8649H50.8539H50.8429H50.8319H50.821H50.81H50.799H50.788H50.7771H50.7661H50.7552H50.7443H50.7333H50.7224H50.7115H50.7006H50.6897H50.6788H50.6679H50.657H50.6461H50.6352H50.6244H50.6135H50.6026H50.5918H50.5809H50.5701H50.5593H50.5484H50.5376H50.5268H50.5159H50.5051H50.4943H50.4835H50.4727H50.4619H50.4511H50.4403H50.4295H50.4187H50.408H50.3972H50.3864H50.3756H50.3649H50.3541H50.3433H50.3326H50.3218H50.3111H50.3003H50.2896H50.2788H50.2681H50.2573H50.2466H50.2359H50.2251H50.2144H50.2037H50.1929H50.1822H50.1715H50.1608H50.15H50.1393H50.1286H50.1179H50.1072H50.0964H50.0857H50.075H50.0643H50.0536H50.0429H50.0321H50.0214H50.0107H50H49.9893H49.9786H49.9679H49.9571H49.9464H49.9357H49.925H49.9143H49.9036H49.8929H49.8821H49.8714H49.8607H49.85H49.8392H49.8285H49.8178H49.8071H49.7963H49.7856H49.7749H49.7641H49.7534H49.7427H49.7319H49.7212H49.7104H49.6997H49.6889H49.6782H49.6674H49.6567H49.6459H49.6351H49.6244H49.6136H49.6028H49.592H49.5813H49.5705H49.5597H49.5489H49.5381H49.5273H49.5165H49.5057H49.4949H49.4841H49.4732H49.4624H49.4516H49.4407H49.4299H49.4191H49.4082H49.3974H49.3865H49.3756H49.3648H49.3539H49.343H49.3321H49.3212H49.3103H49.2994H49.2885H49.2776H49.2667H49.2557H49.2448H49.2339H49.2229H49.212H49.201H49.19H49.179H49.1681H49.1571H49.1461H49.1351H49.1241H49.113H49.102H49.091H49.0799H49.0689H49.0578H49.0468H49.0357H49.0246H49.0135H49.0024H48.9913H48.9802H48.9691H48.9579H48.9468H48.9356H48.9245H48.9133H48.9021H48.891H48.8798H48.8685H48.8573H48.8461H48.8349H48.8236H48.8124H48.8011H48.7898H48.7785H48.7673H48.7559H48.7446H48.7333H48.722H48.7106H48.6993H48.6879H48.6765H48.6651H48.6537H48.6423H48.6309H48.6194H48.608H48.5965H48.585H48.5736H48.5621H48.5505H48.539H48.5275H48.5159H48.5044H48.4928H48.4812H48.4696H48.458H48.4464H48.4348H48.4231H48.4115H48.3998H48.3881H48.3764H48.3647H48.353H48.3412H48.3295H48.3177H48.3059H48.2941H48.2823H48.2705H48.2586H48.2468H48.2349H48.223H48.2111H48.1992H48.1873H48.1753H48.1634H48.1514H48.1394H48.1274H48.1154H48.1034H48.0913H48.0792H48.0672H48.0551H48.0429H48.0308H48.0187H48.0065H47.9943H47.9821H47.9699H47.9577H47.9454H47.9332H47.9209H47.9086H47.8963H47.8839H47.8716H47.8592H47.8468H47.8344H47.822H47.8096H47.7971H47.7847H47.7722H47.7597H47.7471H47.7346H47.722H47.7094H47.6968H47.6842H47.6716H47.6589H47.6463H47.6336H47.6208H47.6081H47.5954H47.5826H47.5698H47.557H47.5442H47.5313H47.5184H47.5055H47.5ZM42.5 91.5V91V89V88.5V87.2071L39.6464 84.3536L39.4597 84.1668L39.5086 83.9074L39.5087 83.9073L39.5088 83.9068L39.5093 83.9039L39.5116 83.8915L39.5208 83.8406C39.5289 83.7953 39.5407 83.7278 39.5555 83.6401C39.5849 83.4647 39.6259 83.209 39.6716 82.89C39.7628 82.2517 39.8724 81.3624 39.9454 80.3593C40.0927 78.3339 40.0848 75.9155 39.5235 74.1516C38.1114 69.7136 35.3787 66.1313 32.5897 62.4754L32.5896 62.4754L32.5896 62.4753L32.5896 62.4753L32.5895 62.4752L32.5895 62.4752L32.5894 62.4751L32.5894 62.475C31.9864 61.6846 31.3807 60.8907 30.7852 60.0839C27.4559 55.5735 24.5 50.7144 24.5 44C24.5 30.7645 33.6849 18.5 50 18.5C66.3151 18.5 75.5 30.7645 75.5 44C75.5 50.685 72.0217 55.6794 68.4566 60.2452C68.0856 60.7204 67.7141 61.1902 67.3454 61.6567L67.3453 61.6567L67.3453 61.6568L67.3453 61.6568L67.3453 61.6568L67.3452 61.6568L67.3452 61.6569L67.3452 61.6569C65.9304 63.4465 64.5552 65.186 63.3967 66.982C61.9414 69.2382 60.856 71.5438 60.495 74.0707C60.2254 75.9578 60.2237 78.4211 60.2926 80.4326C60.3269 81.4342 60.3783 82.316 60.4212 82.9473C60.4426 83.2628 60.4619 83.5155 60.4758 83.689L60.4852 83.8052L60.4921 83.8877L60.4965 83.9386L60.4976 83.9513L60.4979 83.9543L60.498 83.955L60.498 83.9552L60.519 84.1881L60.3536 84.3536L57.5 87.2071V89V89.5V93.5V94H57H53.5V96V96.5H53H52.9863H52.9726H52.9589H52.9453H52.9316H52.918H52.9045H52.8909H52.8774H52.8639H52.8504H52.8369H52.8235H52.8101H52.7967H52.7833H52.7699H52.7566H52.7433H52.73H52.7167H52.7035H52.6903H52.6771H52.6639H52.6507H52.6376H52.6245H52.6114H52.5983H52.5853H52.5722H52.5592H52.5462H52.5332H52.5203H52.5074H52.4945H52.4816H52.4687H52.4558H52.443H52.4302H52.4174H52.4046H52.3919H52.3792H52.3664H52.3537H52.3411H52.3284H52.3158H52.3032H52.2906H52.278H52.2654H52.2529H52.2403H52.2278H52.2153H52.2029H52.1904H52.178H52.1656H52.1532H52.1408H52.1284H52.1161H52.1037H52.0914H52.0791H52.0668H52.0546H52.0423H52.0301H52.0179H52.0057H51.9935H51.9813H51.9692H51.9571H51.945H51.9328H51.9208H51.9087H51.8966H51.8846H51.8726H51.8606H51.8486H51.8366H51.8247H51.8127H51.8008H51.7889H51.777H51.7651H51.7532H51.7414H51.7295H51.7177H51.7059H51.6941H51.6823H51.6705H51.6588H51.647H51.6353H51.6236H51.6119H51.6002H51.5885H51.5769H51.5652H51.5536H51.542H51.5304H51.5188H51.5072H51.4956H51.4841H51.4725H51.461H51.4495H51.4379H51.4264H51.415H51.4035H51.392H51.3806H51.3691H51.3577H51.3463H51.3349H51.3235H51.3121H51.3008H51.2894H51.278H51.2667H51.2554H51.2441H51.2328H51.2215H51.2102H51.1989H51.1876H51.1764H51.1651H51.1539H51.1427H51.1315H51.1202H51.1091H51.0979H51.0867H51.0755H51.0644H51.0532H51.0421H51.0309H51.0198H51.0087H50.9976H50.9865H50.9754H50.9643H50.9532H50.9422H50.9311H50.9201H50.909H50.898H50.887H50.8759H50.8649H50.8539H50.8429H50.8319H50.821H50.81H50.799H50.788H50.7771H50.7661H50.7552H50.7443H50.7333H50.7224H50.7115H50.7006H50.6897H50.6788H50.6679H50.657H50.6461H50.6352H50.6244H50.6135H50.6026H50.5918H50.5809H50.5701H50.5593H50.5484H50.5376H50.5268H50.5159H50.5051H50.4943H50.4835H50.4727H50.4619H50.4511H50.4403H50.4295H50.4187H50.408H50.3972H50.3864H50.3756H50.3649H50.3541H50.3433H50.3326H50.3218H50.3111H50.3003H50.2896H50.2788H50.2681H50.2573H50.2466H50.2359H50.2251H50.2144H50.2037H50.1929H50.1822H50.1715H50.1608H50.15H50.1393H50.1286H50.1179H50.1072H50.0964H50.0857H50.075H50.0643H50.0536H50.0429H50.0321H50.0214H50.0107H50H49.9893H49.9786H49.9679H49.9571H49.9464H49.9357H49.925H49.9143H49.9036H49.8929H49.8821H49.8714H49.8607H49.85H49.8392H49.8285H49.8178H49.8071H49.7963H49.7856H49.7749H49.7641H49.7534H49.7427H49.7319H49.7212H49.7104H49.6997H49.6889H49.6782H49.6674H49.6567H49.6459H49.6351H49.6244H49.6136H49.6028H49.592H49.5813H49.5705H49.5597H49.5489H49.5381H49.5273H49.5165H49.5057H49.4949H49.4841H49.4732H49.4624H49.4516H49.4407H49.4299H49.4191H49.4082H49.3974H49.3865H49.3756H49.3648H49.3539H49.343H49.3321H49.3212H49.3103H49.2994H49.2885H49.2776H49.2667H49.2557H49.2448H49.2339H49.2229H49.212H49.201H49.19H49.179H49.1681H49.1571H49.1461H49.1351H49.1241H49.113H49.102H49.091H49.0799H49.0689H49.0578H49.0468H49.0357H49.0246H49.0135H49.0024H48.9913H48.9802H48.9691H48.9579H48.9468H48.9356H48.9245H48.9133H48.9021H48.891H48.8798H48.8685H48.8573H48.8461H48.8349H48.8236H48.8124H48.8011H48.7898H48.7785H48.7673H48.7559H48.7446H48.7333H48.722H48.7106H48.6993H48.6879H48.6765H48.6651H48.6537H48.6423H48.6309H48.6194H48.608H48.5965H48.585H48.5736H48.5621H48.5505H48.539H48.5275H48.5159H48.5044H48.4928H48.4812H48.4696H48.458H48.4464H48.4348H48.4231H48.4115H48.3998H48.3881H48.3764H48.3647H48.353H48.3412H48.3295H48.3177H48.3059H48.2941H48.2823H48.2705H48.2586H48.2468H48.2349H48.223H48.2111H48.1992H48.1873H48.1753H48.1634H48.1514H48.1394H48.1274H48.1154H48.1034H48.0913H48.0792H48.0672H48.0551H48.0429H48.0308H48.0187H48.0065H47.9943H47.9821H47.9699H47.9577H47.9454H47.9332H47.9209H47.9086H47.8963H47.8839H47.8716H47.8592H47.8468H47.8344H47.822H47.8096H47.7971H47.7847H47.7722H47.7597H47.7471H47.7346H47.722H47.7094H47.6968H47.6842H47.6716H47.6589H47.6463H47.6336H47.6208H47.6081H47.5954H47.5826H47.5698H47.557H47.5442H47.5313H47.5184H47.5055H47.4926H47.4797H47.4668H47.4538H47.4408H47.4278H47.4147H47.4017H47.3886H47.3755H47.3624H47.3493H47.3361H47.3229H47.3097H47.2965H47.2833H47.27H47.2567H47.2434H47.2301H47.2167H47.2033H47.1899H47.1765H47.1631H47.1496H47.1361H47.1226H47.1091H47.0955H47.082H47.0684H47.0547H47.0411H47.0274H47.0137H47H46.5V96V94H43H42.5V93.5V91.5ZM54.4546 64.5L52.5416 86.5H47.4584L45.5454 64.5H54.4546ZM21.0257 58.618L22.1839 62.1824H25.9316H27.6329L26.2565 63.1824L23.2245 65.3853L24.3827 68.9496L24.9084 70.5676L23.532 69.5676L20.5 67.3647L17.468 69.5676L16.0916 70.5676L16.6173 68.9496L17.7755 65.3853L14.7435 63.1824L13.3671 62.1824H15.0684H18.8161L19.9743 58.618L20.5 57L21.0257 58.618ZM22.1839 63.1824H24.5552L22.6368 64.5762L22.049 65.0033L22.2735 65.6943L23.0063 67.9496L21.0878 66.5557L20.5 66.1287L19.9122 66.5557L17.9937 67.9496L18.7265 65.6943L18.951 65.0033L18.3633 64.5762L16.4448 63.1824H18.8161H19.5427L19.7672 62.4914L20.5 60.2361L21.2328 62.4914L21.4573 63.1824H22.1839ZM81.1839 62.1824L80.0257 58.618L79.5 57L78.9743 58.618L77.8161 62.1824H74.0684H72.3671L73.7435 63.1824L76.7755 65.3853L75.6173 68.9496L75.0916 70.5676L76.468 69.5676L79.5 67.3647L82.532 69.5676L83.9084 70.5676L83.3827 68.9496L82.2245 65.3853L85.2565 63.1824L86.6329 62.1824H84.9316H81.1839ZM83.5552 63.1824H81.1839H80.4573L80.2328 62.4914L79.5 60.2361L78.7672 62.4914L78.5427 63.1824H77.8161H75.4448L77.3632 64.5762L77.951 65.0033L77.7265 65.6943L76.9937 67.9496L78.9122 66.5557L79.5 66.1287L80.0878 66.5557L82.0063 67.9496L81.2735 65.6943L81.049 65.0033L81.6367 64.5762L83.5552 63.1824ZM82.0257 20.618L83.1839 24.1824H86.9316H88.6329L87.2565 25.1824L84.2245 27.3853L85.3827 30.9496L85.9084 32.5676L84.532 31.5676L81.5 29.3647L78.468 31.5676L77.0916 32.5676L77.6173 30.9496L78.7755 27.3853L75.7435 25.1824L74.3671 24.1824H76.0684H79.8161L80.9743 20.618L81.5 19L82.0257 20.618ZM83.1839 25.1824H85.5552L83.6367 26.5762L83.049 27.0033L83.2735 27.6943L84.0063 29.9496L82.0878 28.5557L81.5 28.1287L80.9122 28.5557L78.9937 29.9496L79.7265 27.6943L79.951 27.0033L79.3632 26.5762L77.4448 25.1824H79.8161H80.5427L80.7672 24.4914L81.5 22.2361L82.2328 24.4914L82.4573 25.1824H83.1839ZM20.1839 24.1824L19.0257 20.618L18.5 19L17.9743 20.618L16.8161 24.1824H13.0684H11.3671L12.7435 25.1824L15.7755 27.3853L14.6173 30.9496L14.0916 32.5676L15.468 31.5676L18.5 29.3647L21.532 31.5676L22.9084 32.5676L22.3827 30.9496L21.2245 27.3853L24.2565 25.1824L25.6329 24.1824H23.9316H20.1839ZM22.5552 25.1824H20.1839H19.4573L19.2328 24.4914L18.5 22.2361L17.7672 24.4914L17.5427 25.1824H16.8161H14.4448L16.3633 26.5762L16.951 27.0033L16.7265 27.6943L15.9937 29.9496L17.9122 28.5557L18.5 28.1287L19.0878 28.5557L21.0063 29.9496L20.2735 27.6943L20.049 27.0033L20.6368 26.5762L22.5552 25.1824Z" fill="#FF0000"/>
</svg>
